<svg width="24" height="24" viewBox="0 0 24 24" xmlns="http://www.w3.org/2000/svg">
<path d="M0.502696 2.92661L9.57609 12L0.502696 21.0734C-0.167565 21.7437 -0.167565 22.8288 0.502696 23.4973C1.17296 24.1659 2.25806 24.1676 2.92661 23.4973L12 14.4239L21.0734 23.4973C21.7437 24.1676 22.8288 24.1676 23.4973 23.4973C24.1659 22.827 24.1676 21.7419 23.4973 21.0734L14.4239 12L23.4973 2.92661C24.1676 2.25635 24.1676 1.17124 23.4973 0.502696C22.827 -0.165851 21.7419 -0.167565 21.0734 0.502696L12 9.57609L2.92661 0.502696C2.25635 -0.167565 1.17124 -0.167565 0.502696 0.502696C-0.165851 1.17296 -0.167565 2.25806 0.502696 2.92661Z"/>
</svg>
